<svg width="85" height="20" viewBox="0 0 85 20" fill="none" xmlns="http://www.w3.org/2000/svg">
<path d="M2.302 19.208C1.782 19.208 1.38333 19.0693 1.106 18.792C0.828667 18.4973 0.69 18.0813 0.69 17.544V2.1C0.69 1.56267 0.828667 1.15533 1.106 0.877999C1.38333 0.600665 1.782 0.461998 2.302 0.461998C2.822 0.461998 3.22067 0.600665 3.498 0.877999C3.79267 1.15533 3.94 1.56267 3.94 2.1V8.834H3.576C3.95733 7.91533 4.54667 7.222 5.344 6.754C6.15867 6.26867 7.07733 6.026 8.1 6.026C9.12267 6.026 9.96333 6.21667 10.622 6.598C11.2807 6.97933 11.7747 7.56 12.104 8.34C12.4333 9.10267 12.598 10.0733 12.598 11.252V17.544C12.598 18.0813 12.4593 18.4973 12.182 18.792C11.9047 19.0693 11.506 19.208 10.986 19.208C10.466 19.208 10.0587 19.0693 9.764 18.792C9.48667 18.4973 9.348 18.0813 9.348 17.544V11.408C9.348 10.42 9.15733 9.70067 8.776 9.25C8.412 8.79933 7.84 8.574 7.06 8.574C6.10667 8.574 5.344 8.87733 4.772 9.484C4.21733 10.0733 3.94 10.862 3.94 11.85V17.544C3.94 18.6533 3.394 19.208 2.302 19.208ZM17.511 19.182C16.991 19.182 16.5923 19.026 16.315 18.714C16.0377 18.402 15.899 17.9687 15.899 17.414V7.872C15.899 7.3 16.0377 6.86667 16.315 6.572C16.5923 6.26 16.991 6.104 17.511 6.104C18.031 6.104 18.4297 6.26 18.707 6.572C19.0017 6.86667 19.149 7.3 19.149 7.872V17.414C19.149 17.9687 19.0103 18.402 18.733 18.714C18.4557 19.026 18.0483 19.182 17.511 19.182ZM17.511 3.686C16.9043 3.686 16.4277 3.53867 16.081 3.244C15.7517 2.932 15.587 2.50733 15.587 1.97C15.587 1.41533 15.7517 0.990666 16.081 0.695999C16.4277 0.401333 16.9043 0.254 17.511 0.254C18.135 0.254 18.6117 0.401333 18.941 0.695999C19.2703 0.990666 19.435 1.41533 19.435 1.97C19.435 2.50733 19.2703 2.932 18.941 3.244C18.6117 3.53867 18.135 3.686 17.511 3.686ZM24.1379 19.208C23.6179 19.208 23.2193 19.0693 22.9419 18.792C22.6646 18.4973 22.5259 18.0813 22.5259 17.544V2.1C22.5259 1.56267 22.6646 1.15533 22.9419 0.877999C23.2193 0.600665 23.6179 0.461998 24.1379 0.461998C24.6579 0.461998 25.0566 0.600665 25.3339 0.877999C25.6286 1.15533 25.7759 1.56267 25.7759 2.1V11.694H25.8279L30.1179 7.17C30.4646 6.82333 30.7679 6.55467 31.0279 6.364C31.2879 6.17333 31.6433 6.078 32.0939 6.078C32.5446 6.078 32.8826 6.19933 33.1079 6.442C33.3506 6.66733 33.4719 6.94467 33.4719 7.274C33.4719 7.60333 33.3159 7.93267 33.0039 8.262L28.4799 13.046V11.694L33.4459 17.05C33.7579 17.3793 33.8966 17.7173 33.8619 18.064C33.8446 18.3933 33.7059 18.6707 33.4459 18.896C33.1859 19.104 32.8566 19.208 32.4579 19.208C31.9726 19.208 31.5826 19.1127 31.2879 18.922C31.0106 18.7313 30.6986 18.4453 30.3519 18.064L25.8279 13.332H25.7759V17.544C25.7759 18.6533 25.2299 19.208 24.1379 19.208ZM42.4775 19.26C41.0388 19.26 39.7995 18.9913 38.7595 18.454C37.7195 17.9167 36.9135 17.154 36.3415 16.166C35.7868 15.178 35.5095 14.008 35.5095 12.656C35.5095 11.3387 35.7782 10.186 36.3155 9.198C36.8702 8.21 37.6242 7.43867 38.5775 6.884C39.5482 6.312 40.6488 6.026 41.8795 6.026C42.7808 6.026 43.5868 6.17333 44.2975 6.468C45.0255 6.76267 45.6408 7.18733 46.1435 7.742C46.6635 8.29667 47.0535 8.97267 47.3135 9.77C47.5908 10.55 47.7295 11.434 47.7295 12.422C47.7295 12.734 47.6168 12.9767 47.3915 13.15C47.1835 13.306 46.8802 13.384 46.4815 13.384H38.1355V11.512H45.4415L45.0255 11.902C45.0255 11.1047 44.9042 10.4373 44.6615 9.9C44.4362 9.36267 44.0982 8.95533 43.6475 8.678C43.2142 8.38333 42.6682 8.236 42.0095 8.236C41.2815 8.236 40.6575 8.40933 40.1375 8.756C39.6348 9.08533 39.2448 9.562 38.9675 10.186C38.7075 10.7927 38.5775 11.5207 38.5775 12.37V12.552C38.5775 13.9733 38.9068 15.0393 39.5655 15.75C40.2415 16.4433 41.2295 16.79 42.5295 16.79C42.9802 16.79 43.4828 16.738 44.0375 16.634C44.6095 16.5127 45.1468 16.3133 45.6495 16.036C46.0135 15.828 46.3342 15.7413 46.6115 15.776C46.8888 15.7933 47.1055 15.8887 47.2615 16.062C47.4348 16.2353 47.5388 16.452 47.5735 16.712C47.6082 16.9547 47.5562 17.206 47.4175 17.466C47.2962 17.726 47.0795 17.9513 46.7675 18.142C46.1608 18.5233 45.4588 18.8093 44.6615 19C43.8815 19.1733 43.1535 19.26 42.4775 19.26ZM51.9673 19.208C51.4473 19.208 51.0486 19.0693 50.7713 18.792C50.4939 18.4973 50.3553 18.0813 50.3553 17.544V7.716C50.3553 7.17867 50.4939 6.77133 50.7713 6.494C51.0486 6.21667 51.4386 6.078 51.9413 6.078C52.4439 6.078 52.8339 6.21667 53.1113 6.494C53.3886 6.77133 53.5273 7.17867 53.5273 7.716V9.614L53.2413 8.834C53.5879 7.96733 54.1253 7.28267 54.8533 6.78C55.5813 6.27733 56.4479 6.026 57.4533 6.026C58.4759 6.026 59.3166 6.26867 59.9753 6.754C60.6339 7.23933 61.0933 7.98467 61.3533 8.99H60.9893C61.3359 8.07133 61.9079 7.352 62.7053 6.832C63.5026 6.29467 64.4213 6.026 65.4613 6.026C66.4319 6.026 67.2293 6.21667 67.8533 6.598C68.4946 6.97933 68.9713 7.56 69.2833 8.34C69.5953 9.10267 69.7513 10.0733 69.7513 11.252V17.544C69.7513 18.0813 69.6039 18.4973 69.3093 18.792C69.0319 19.0693 68.6333 19.208 68.1133 19.208C67.5933 19.208 67.1946 19.0693 66.9173 18.792C66.6399 18.4973 66.5013 18.0813 66.5013 17.544V11.382C66.5013 10.4113 66.3366 9.70067 66.0073 9.25C65.6953 8.79933 65.1579 8.574 64.3953 8.574C63.5459 8.574 62.8786 8.87733 62.3933 9.484C61.9079 10.0733 61.6653 10.8967 61.6653 11.954V17.544C61.6653 18.0813 61.5266 18.4973 61.2493 18.792C60.9719 19.0693 60.5733 19.208 60.0533 19.208C59.5333 19.208 59.1259 19.0693 58.8313 18.792C58.5539 18.4973 58.4153 18.0813 58.4153 17.544V11.382C58.4153 10.4113 58.2506 9.70067 57.9213 9.25C57.6093 8.79933 57.0806 8.574 56.3353 8.574C55.4859 8.574 54.8186 8.87733 54.3333 9.484C53.8479 10.0733 53.6053 10.8967 53.6053 11.954V17.544C53.6053 18.6533 53.0593 19.208 51.9673 19.208ZM79.3701 19.26C77.9314 19.26 76.6921 18.9913 75.6521 18.454C74.6121 17.9167 73.8061 17.154 73.2341 16.166C72.6794 15.178 72.4021 14.008 72.4021 12.656C72.4021 11.3387 72.6707 10.186 73.2081 9.198C73.7627 8.21 74.5167 7.43867 75.4701 6.884C76.4407 6.312 77.5414 6.026 78.7721 6.026C79.6734 6.026 80.4794 6.17333 81.1901 6.468C81.9181 6.76267 82.5334 7.18733 83.0361 7.742C83.5561 8.29667 83.9461 8.97267 84.2061 9.77C84.4834 10.55 84.6221 11.434 84.6221 12.422C84.6221 12.734 84.5094 12.9767 84.2841 13.15C84.0761 13.306 83.7727 13.384 83.3741 13.384H75.0281V11.512H82.3341L81.9181 11.902C81.9181 11.1047 81.7967 10.4373 81.5541 9.9C81.3287 9.36267 80.9907 8.95533 80.5401 8.678C80.1067 8.38333 79.5607 8.236 78.9021 8.236C78.1741 8.236 77.5501 8.40933 77.0301 8.756C76.5274 9.08533 76.1374 9.562 75.8601 10.186C75.6001 10.7927 75.4701 11.5207 75.4701 12.37V12.552C75.4701 13.9733 75.7994 15.0393 76.4581 15.75C77.1341 16.4433 78.1221 16.79 79.4221 16.79C79.8727 16.79 80.3754 16.738 80.9301 16.634C81.5021 16.5127 82.0394 16.3133 82.5421 16.036C82.9061 15.828 83.2267 15.7413 83.5041 15.776C83.7814 15.7933 83.9981 15.8887 84.1541 16.062C84.3274 16.2353 84.4314 16.452 84.4661 16.712C84.5007 16.9547 84.4487 17.206 84.3101 17.466C84.1887 17.726 83.9721 17.9513 83.6601 18.142C83.0534 18.5233 82.3514 18.8093 81.5541 19C80.7741 19.1733 80.0461 19.26 79.3701 19.26Z" fill="#2F3645"/>
</svg>
